<?xml version="1.0" standalone="no"?>
<!DOCTYPE svg PUBLIC "-//W3C//DTD SVG 20010904//EN"
 "http://www.w3.org/TR/2001/REC-SVG-20010904/DTD/svg10.dtd">
<svg version="1.0" xmlns="http://www.w3.org/2000/svg"
 width="500.000000pt" height="500.000000pt" viewBox="0 0 500.000000 500.000000"
 preserveAspectRatio="xMidYMid meet">

<g transform="translate(0.000000,500.000000) scale(0.100000,-0.100000)"
fill="#000000" stroke="none">
<path d="M2910 3330 c-293 -5 -295 -5 -327 -29 l-33 -25 0 -408 0 -408 50 25
51 26 292 -1 c237 -2 293 1 295 12 2 11 -47 12 -273 10 l-276 -3 -34 34 c-38
38 -45 75 -23 122 20 45 55 55 186 55 114 0 120 -1 142 -25 21 -22 32 -25 95
-25 64 0 74 3 96 26 23 24 29 26 107 22 70 -2 82 -1 82 13 0 13 -12 15 -82 11
-74 -4 -87 -8 -116 -33 -27 -24 -42 -29 -87 -29 -46 0 -59 5 -88 30 l-35 30
-136 0 c-76 0 -146 5 -157 10 -26 14 -24 55 3 74 18 13 52 16 162 16 l140 0
31 -29 30 -30 215 -2 c175 -1 216 1 218 12 2 12 -35 13 -210 11 l-213 -3 -25
26 -25 27 29 25 c28 23 35 25 128 21 60 -2 98 1 98 7 0 6 -42 9 -108 7 -103
-4 -108 -5 -137 -33 l-31 -29 -140 0 c-152 0 -184 9 -184 54 0 41 17 46 155
46 l131 0 30 31 29 30 228 -3 c188 -2 227 -1 225 11 -2 11 -46 13 -233 12
l-230 -2 -30 -29 c-31 -30 -32 -30 -149 -30 -128 0 -156 8 -156 45 0 48 28 55
220 55 l177 0 24 26 c23 24 28 26 109 22 70 -2 85 0 85 12 0 12 -16 14 -90 11
-84 -2 -92 -5 -120 -32 l-31 -29 -129 0 c-72 0 -147 5 -167 10 -104 29 -104
169 0 201 24 7 125 9 290 7 197 -2 252 0 252 10 0 6 -8 11 -17 10 -10 -2 -151
-5 -313 -8z"/>
<path d="M2662 3213 c2 -14 12 -17 48 -15 38 3 49 -1 69 -22 34 -36 88 -36
122 0 23 25 27 25 134 23 88 -2 110 0 110 11 0 11 -23 13 -115 11 -106 -2
-117 -4 -141 -27 -32 -31 -75 -31 -108 0 -34 31 -124 45 -119 19z"/>
<path d="M2668 2689 c-25 -16 5 -28 53 -22 42 5 53 2 72 -15 21 -19 36 -21
235 -24 159 -2 212 0 212 9 0 18 -20 27 -33 14 -7 -7 -72 -11 -192 -11 -179 0
-182 0 -204 24 -18 19 -35 25 -78 28 -30 1 -60 0 -65 -3z"/>
<path d="M1030 2061 l0 -139 70 0 c87 -1 110 14 117 80 5 41 2 50 -22 73 -23
24 -32 27 -71 22 l-44 -5 0 54 c0 51 -1 54 -25 54 l-25 0 0 -139z m121 -11
c23 -13 25 -53 3 -74 -29 -30 -74 -10 -74 32 0 46 30 64 71 42z"/>
<path d="M1730 2060 l0 -140 25 0 25 0 0 140 0 140 -25 0 -25 0 0 -140z"/>
<path d="M2070 2060 l0 -140 25 0 c23 0 25 4 25 43 l1 42 20 -25 c12 -14 27
-33 34 -43 8 -12 22 -17 40 -15 l27 3 -31 42 c-17 24 -31 46 -31 49 0 3 14 24
31 45 l31 39 -30 0 c-23 0 -35 -9 -58 -42 l-29 -41 -3 91 c-3 90 -3 92 -27 92
l-25 0 0 -140z"/>
<path d="M2340 2061 l0 -139 69 0 c55 -1 73 3 90 19 40 37 40 100 0 140 -17
17 -30 20 -65 16 l-44 -5 0 54 c0 51 -1 54 -25 54 l-25 0 0 -139z m124 -17
c21 -20 20 -43 -1 -66 -31 -34 -73 -16 -73 32 0 47 42 66 74 34z"/>
<path d="M2810 2060 l0 -140 25 0 25 0 0 140 0 140 -25 0 -25 0 0 -140z"/>
<path d="M3430 2060 l0 -140 25 0 25 0 0 140 0 140 -25 0 -25 0 0 -140z"/>
<path d="M1334 2176 c-9 -24 4 -48 23 -44 24 4 24 52 0 56 -9 2 -20 -4 -23
-12z"/>
<path d="M1913 2183 c-18 -7 -16 -42 3 -50 8 -3 23 1 31 10 13 13 14 19 3 31
-13 17 -17 18 -37 9z"/>
<path d="M2644 2176 c-9 -24 4 -48 23 -44 12 2 18 12 18 28 0 29 -32 41 -41
16z"/>
<path d="M3264 2176 c-9 -24 4 -48 23 -44 12 2 18 12 18 28 0 29 -32 41 -41
16z"/>
<path d="M1510 2125 c0 -14 -4 -25 -10 -25 -5 0 -10 -9 -10 -20 0 -11 5 -20
10 -20 6 0 10 -21 10 -48 0 -62 21 -92 63 -92 18 0 37 4 44 8 18 11 -2 36 -29
37 -20 0 -23 6 -26 48 -3 45 -2 47 22 47 19 0 26 5 26 20 0 15 -7 20 -25 20
-20 0 -25 5 -25 25 0 20 -5 25 -25 25 -20 0 -25 -5 -25 -25z"/>
<path d="M1330 2010 c0 -89 0 -90 25 -90 25 0 25 1 25 90 0 89 0 90 -25 90
-25 0 -25 -1 -25 -90z"/>
<path d="M1900 2010 c0 -89 0 -90 25 -90 25 0 25 1 25 90 0 89 0 90 -25 90
-25 0 -25 -1 -25 -90z"/>
<path d="M2640 2010 c0 -89 0 -90 25 -90 25 0 25 1 25 90 0 89 0 90 -25 90
-25 0 -25 -1 -25 -90z"/>
<path d="M2997 2082 c-19 -21 -23 -67 -7 -77 8 -5 7 -11 -1 -21 -6 -8 -9 -24
-6 -36 3 -11 1 -30 -4 -40 -35 -65 91 -115 154 -60 21 19 22 65 2 82 -9 7 -38
15 -66 18 -31 3 -48 9 -46 16 3 6 10 10 17 8 21 -5 80 19 89 36 4 9 11 34 15
55 l7 37 -69 0 c-54 0 -72 -4 -85 -18z m87 -35 c8 -14 8 -20 -4 -27 -22 -14
-40 -12 -46 5 -16 41 27 60 50 22z m11 -162 c0 -14 -8 -21 -25 -23 -33 -3 -55
12 -47 33 10 25 72 17 72 -10z"/>
<path d="M3260 2010 c0 -89 0 -90 25 -90 25 0 25 1 25 90 0 89 0 90 -25 90
-25 0 -25 -1 -25 -90z"/>
<path d="M3615 2075 c-35 -34 -35 -96 0 -130 28 -29 98 -35 130 -11 17 12 17
16 6 30 -10 12 -17 14 -25 6 -22 -22 -86 -6 -86 22 0 4 29 8 65 8 63 0 65 1
65 25 0 41 -42 75 -90 75 -30 0 -47 -6 -65 -25z m86 -15 c31 -17 22 -30 -21
-30 -42 0 -52 12 -22 29 21 13 20 13 43 1z"/>
<path d="M3880 2010 c0 -89 0 -90 25 -90 23 0 25 3 25 53 0 59 7 73 35 78 27
6 34 49 8 49 -11 0 -24 -5 -31 -12 -9 -9 -12 -9 -12 0 0 7 -11 12 -25 12 -25
0 -25 -1 -25 -90z"/>
</g>
</svg>
